<svg version="1" xmlns="http://www.w3.org/2000/svg" width="2764" height="2764" viewBox="0 0 2073.000000 2073.000000"><path d="M552.9.4c-.2.2-5.1.7-10.9 1-5.8.4-11.8.9-13.5 1.1-1.6.2-5.7.7-9 1-6.4.7-11.2 1.3-16 2-1.6.3-4.8.7-7 1-5.5.8-10.5 1.7-20.5 3.6-3 .6-6.6 1.2-8 1.5-27.5 5.1-68.9 17.6-100.5 30.2-95.2 38-182.1 103.7-245.1 185.3-8.7 11.3-11.1 14.6-20.4 27.9-16.7 23.9-35.9 57.8-49.7 88-11.7 25.5-28.7 72.6-31.8 88-.2.8-.9 3.5-1.6 6-.7 2.5-1.4 4.9-1.5 5.5-.7 2.3-7.3 33.2-7.8 36-.3 1.6-1.2 7-2 12-.8 4.9-1.8 11-2.1 13.5-.3 2.5-.8 5.6-1 7-.2 1.4-.7 5.6-1.1 9.5-.3 3.8-.8 7.8-1 8.7-.1 1-.6 7-1.1 13.5-1 15.2-1.1 977.1 0 988.3.4 4.7 1 11 1.3 14 .2 3 .7 7.1.9 9 .3 1.9.7 5.7 1 8.5.3 2.7.8 6.1 1.1 7.5.2 1.4.7 4.3.9 6.5 2.7 22 12.1 61.8 21.2 90 8.9 27.5 17 47.8 30.8 77 17.2 36.3 47.7 83.7 75.1 116.5 18.6 22.4 42.2 46.9 60.3 63 4.1 3.6 7.9 7 8.5 7.5 10 9.4 41.7 33.5 60.2 45.7 14.7 9.7 33 20.8 34.4 20.8.4 0 1 .3 1.2.8 1.2 2.7 56 28.8 77.3 36.7 18.1 6.8 47.9 16.6 54.8 18 1 .2 5.2 1.4 9.5 2.5 9 2.5 42.7 9.6 49.2 10.4 2.5.3 5.4.7 6.5 1 3.5.6 14.2 2.1 23 3.1 2.8.3 6.6.7 8.5 1 1.9.2 7.6.8 12.5 1.2 11.7 1 981.2 1 993 0 10.6-.9 18-1.7 21.5-2.2 1.4-.2 5.4-.7 9-1 5.9-.6 35.9-5.6 42-7 1.4-.3 3.9-.8 5.5-1.1 13.7-2.4 48.9-12.3 68-19.1 5.5-1.9 11.8-4.1 14-4.8 8-2.6 36.3-14.8 51.5-22.3 59.9-29.3 111-66 158-113.1 14.7-14.7 32.2-34 40-44.1 1.9-2.5 3.7-4.7 4.1-5 4.1-3.4 37.2-51.1 43.6-62.9.7-1.3 2.9-5 4.9-8.3 11.6-19.1 27.4-51.6 38.4-79.3 13.2-33 27.4-84.2 32.4-117 1.4-9.4 1.7-11.4 2.1-15 .3-2.2.7-5.1 1-6.5.7-4.1 1.7-13.5 3.2-30 1-12.3 1.1-976.9 0-991.7-.5-6.2-1-12.3-1.2-13.5-.2-1.3-.7-5.5-1.1-9.3-5.5-52.2-20.4-109.2-41.6-159.5-9.7-23-26.8-57.2-33-66.2-1-1.4-1.8-2.9-1.8-3.2 0-.6-14.1-23.2-18.5-29.6-1.7-2.5-5.1-7.4-7.5-11-2.5-3.6-4.7-6.7-5-7-.3-.3-3.9-5-8-10.5-19.8-26.4-50.3-59.6-75-81.5-5.2-4.7-9.7-8.7-10-9-.3-.3-3-2.5-6-5s-6.4-5.2-7.5-6.1c-52-42.9-119.9-79.8-186-101.2-20.1-6.5-47.5-13.9-59.5-16.1-1.4-.2-6.1-1.2-10.5-2.1-4.4-.9-9.1-1.8-10.5-2-1.4-.2-3.8-.6-5.5-.9-3.4-.6-14.6-2.2-22-3.1-2.7-.4-6-.8-7.1-1-1.2-.2-6.1-.6-11-1s-10-.9-11.4-1.3C1529.4.5 553.6-.3 552.9.4zm966.1 104c5.8.4 11.9.9 13.5 1.1 1.7.2 6.2.6 10 1 3.9.3 7.7.8 8.5 1 .8.2 3.9.7 6.9 1 3 .4 6.3.9 7.5 1.1 1.2.2 3.6.7 5.5 1 10.1 1.7 23.3 4.5 35.1 7.5 71.1 18.2 133.4 50.2 191.5 98.3 10.5 8.7 45.3 42.6 52.7 51.2 24.9 29.5 37.9 48.1 60.4 86.4 6.9 11.8 21 42.4 27.5 59.6 7.2 19.1 16.7 49.8 18.5 60.2.3 1.4 1.3 6.2 2.4 10.7 1.7 7.5 2.8 13 3.5 18.2.2 1.2.6 3.4.9 5 .9 4.5 1.5 8.4 2 13.8.3 2.7.8 6.9 1.2 9.2.7 4.7.9 7 2.1 22.3 1 13.3 1 949.1 0 966-.4 6.9-.9 13.6-1.1 15-.3 1.4-.7 5.4-1.1 9-.5 5.6-4.5 31.6-6 39-.3 1.4-.7 3.4-.9 4.5-3.4 17.4-13.4 52.6-18.5 65-.5 1.1-2.6 6.5-4.6 12-4.8 12.5-6.7 16.9-17.1 38-30 61.3-76 118.7-128.9 161-2.7 2.2-5.2 4.2-5.5 4.5-1.7 1.7-21 15.8-28.7 20.9-21.3 14.2-54.7 32.6-72.3 40-3 1.3-7.3 3.2-9.5 4.1-9.6 4.3-28.2 11.2-41.9 15.4-37.5 11.6-69.1 17.6-112.6 21.4-11.3.9-950.4.9-964.5-.1-14.1-.9-20.9-1.5-26.5-2.2-2.5-.4-6.1-.8-8-1.1-1.9-.2-4.8-.6-6.5-.9-1.6-.3-4.8-.7-7-1.1-33.3-5.1-82.9-19.4-109.8-31.7-3.2-1.5-6-2.7-6.3-2.7-2.4 0-43.8-21.7-57.9-30.3-12.9-7.9-48.9-33.6-51.5-36.7-.3-.3-1.7-1.5-3.2-2.6-11.1-8.5-45.5-42-57.4-55.9-21.8-25.4-41.1-52.9-56.9-81.2-23.3-41.5-41.3-89.4-50.5-134.3-1.2-5.8-2.4-11.4-2.6-12.5-.2-1.1-.6-3.4-.9-5-.3-1.7-.7-4.1-1-5.5-.2-1.4-.7-4.7-1-7.5-.3-2.7-.7-5.7-.9-6.5-.3-.8-.8-4.4-1.1-8-.4-3.6-.8-8.1-1-10-.2-1.9-.7-8.7-1.1-15-.9-14.6-.9-951.2 0-964 .7-10.8 1.4-17.9 2.1-23 .3-1.9.7-5.7 1-8.4.3-2.7 1.2-9 2.1-14 .8-5 1.7-10.5 2-12.1.4-2.5 4.7-22.7 5.8-27.5 3.3-13.9 13.7-45.7 20.4-62.6 20-49.9 50.8-99.7 87.2-140.9 8.9-10 36.8-37.4 47.1-46.2 14.4-12.3 32.1-25.5 48.1-36 15.7-10.4 15.6-10.3 31.8-19.6 8.2-4.7 35.5-17.9 48-23.2 11.3-4.7 48-17.7 53.8-19 .9-.2 6-1.5 11.2-2.8 9.4-2.5 25.7-6.1 31.5-7.1 16-2.7 22.3-3.6 30.5-4.6 5.2-.6 10.9-1.3 12.5-1.5 1.7-.2 8-.7 14-1 6.1-.4 11.1-.8 11.2-.8.6-.6 945.9.1 954.3.7z"/><path d="M1000.1 314.1c-17.7 3.3-33.9 14.2-44.3 29.9-3.2 4.9-12.1 22.1-11.8 22.8.1.1-1 3.7-2.4 8-3.5 10.8-6 21.8-7.2 32.2-.3 3-.8 6.4-1 7.5-.6 3-1.3 21.2-1.9 49.5-.4 14-.8 27.1-1 29-.1 1.9-.6 7.8-1 13s-.9 10.8-1.1 12.5c-.2 1.6-.6 5.1-.8 7.6-.3 2.5-.7 5.9-1 7.5-.3 1.6-.8 5.4-1.1 8.4-.4 3-1.5 10-2.5 15.5-1.1 5.5-2.2 11.6-2.5 13.5-.3 1.9-1.3 6.4-2.1 10-.9 3.6-1.7 7.3-1.9 8.2-2.5 11.6-14.3 50.4-16.3 53.4-.4.6-3.6 1.6-7.2 2.3-38.1 7.4-53.5 37-36.3 69.9 3.7 7.1 3.7 6.9-2.6 15.7-31.6 44.2-73.4 80.2-121.5 104.8-4.4 2.2-8.3 4.1-8.6 4.2-.3.1-2.7 1.1-5.5 2.4-9 4.1-11.6 5.1-12.8 5.1-.7 0-2.2-3.2-3.5-7.3-12.5-42.7-49.5-68.4-97.2-67.7-5.2 0-39 .2-75 .4s-66.8.6-68.5 1c-14 3-17.8 4.1-23.5 6.3-28 11-48.4 33.5-59.2 65.3-3 8.9-3.2 9.9-5.2 22.1-1.9 11.4-1.8 706.9 0 720.4 2.6 18.6 10.7 36.1 22.5 48.5 3 3.1 13.3 11.8 17.5 14.7 11.5 8 36.5 17.6 53.9 20.7 1.7.3 3.9.8 5 1 1.9.3 8.2 1.3 13.5 2.1 2.6.4 12.3 1.5 17.5 2.1 3 .3 19.6 1.3 31 1.9 9.8.6 75.7.6 79.3.1 1.8-.3 5.2-.8 7.5-1.1 45.5-6.7 76.8-32.8 92-76.7.6-1.8.5-1.9 13.2 3.7 12.3 5.4 43.6 16.3 71.5 24.9 27.7 8.5 87.7 23.7 117.5 29.7 7.3 1.5 7.9 1.6 21.5 4.5 6.9 1.4 13.8 2.7 15.5 3 1.6.2 5.5.9 8.5 1.5 12.4 2.5 14.6 2.9 17 3.3 3 .5 8.3 1.4 12.5 2.1 1.7.3 4.6.8 6.5 1.1 1.9.2 4.6.7 6 .9 4.2.8 26.2 4.3 31 5 2.5.3 7.2 1 10.5 1.5s8.3 1.2 11 1.5c2.8.4 7.7 1 11 1.5s8.7 1.2 12 1.6c3.3.3 6.8.8 7.7.9.9.2 4.8.7 8.5 1 3.7.4 7.5.8 8.3 1 .8.3 5.1.7 9.5 1.1 4.3.3 8.6.7 9.5.9.9.2 5.2.6 9.6 1 4.3.4 9.5.8 11.4 1 1.9.2 7.6.7 12.5 1 5 .4 10.6.9 12.5 1.1 1.9.2 8.7.6 15 .9 6.3.4 13.3.8 15.5 1 25.6 2.3 112.3 2.3 133.5 0 1.9-.2 7.3-.6 12-.9 4.7-.4 9.6-.8 11-1 1.4-.3 5.2-.7 8.5-1 11-1.1 15-1.6 17.5-2.2 1.4-.3 3.9-.8 5.5-1 2.5-.3 9.9-1.5 11.5-1.9.3-.1 2.5-.5 5-.9 13.2-2.3 38.3-9.4 52.5-14.9 31.6-12.2 53.4-25.7 73.1-45.2 23.7-23.4 38.4-54 41.1-85.4 1.2-13.7.7-33.6-1.2-43.2-.3-1.3-.9-4.9-1.5-7.9s-1.6-7.8-2.4-10.7c-1.4-5.2-1.4-5.2 1.3-6.9 5-3.3 17.6-13.9 24.6-20.9 40.3-39.8 56.1-90.9 46-148.7-1.8-10.6-7.4-29.9-11.4-39.6-1.6-4.1-2.7-7.9-2.5-8.5.3-.7 2.5-2.7 4.9-4.5 6.2-4.7 25.2-23.4 32.2-31.7 15.9-19 27.5-41.6 31.8-62.1 1.8-8.2 2.4-28.6 1.1-35.9-4.6-26.6-17-50.2-37.9-71.8l-5.9-6.1 3.4-2.8c11.3-9.7 21.1-21.1 26.7-31 1.2-2.1 2.9-5.3 4-7.1 6.6-11.6 14.9-39.2 16.9-56.2 1-8.1.8-28.6-.3-36-.3-2.2-1.1-6.9-1.6-10.5-.5-3.6-1.4-7.9-1.9-9.5-.5-1.7-1.1-4.1-1.4-5.5-2.8-16.3-19.7-46.7-34.5-62.3-25.6-27-67-46.3-108.6-50.6-4.4-.4-80-.8-168-.9-88 0-160.8-.1-161.7-.1-1.3-.1-1.5-.7-.8-3.4.4-1.7 1.1-4.4 1.4-5.8.4-1.9 1.9-3.2 5.8-4.9 25.4-11.6 39.4-28.1 40.2-46.9.1-3.6-.2-8.6-.7-11.1-2.4-12-13.3-27.2-26.5-37l-6.1-4.5-.2-12c-.2-16.7-1-31-2.4-42.5-2.6-20.9-3.1-23.8-5.6-36.5-1.1-5.5-2.3-11.3-2.6-13-1.1-6.4-9.7-34.5-14.5-47.4-9.2-24.9-28.1-60.9-41.1-78.3-2.3-3.1-4.9-6.6-5.7-7.8-18-25.7-57.3-63.9-85.7-83.2-28.4-19.4-55.5-27.7-77.2-23.7zm20.3 50c6.3 1.7 17.4 7.3 26.1 12.9 21.3 14 51.2 41.7 68.9 64 3.7 4.7 7.4 9.3 8.1 10.2 2.3 2.9 15.5 22.7 15.5 23.3 0 .3 1.2 2.4 2.7 4.8 4.2 6.6 11.1 20.3 15.4 30.7 2.2 5.2 4.4 10.4 4.9 11.5 2.2 4.6 9.2 27.1 11.9 38.1 4.7 19.1 8.4 41.6 9.8 59.4 1.8 22.5.5 72.2-2.3 87.3-.2 1-.6 4.6-.9 8-.7 6.8-1.3 7.9-4.7 8.4-1.2.2-4.9 1-8.2 1.7-5.6 1.3-9.6 2-17.3 3.1-1.5.2-5.7.8-9.3 1.3-3.6.6-9 1.3-12 1.6-3 .3-8.2.8-11.5 1.2-6.9.8-8.1.8-26.5 1.8l-13.5.7-3.5-6.1c-9.5-17-27.9-28.2-47.1-28.9-22.2-.8-38.4 9.6-45.8 29.2-1 2.6-1.4 2.8-4.8 2.2-2.1-.3-5.1-.7-6.8-1-1.6-.3-4.6-.7-6.5-1-10.8-1.5-18.1-3.2-29-6.6-14.2-4.5-13.8-3.5-7.1-16.9 16.6-33.5 29.8-70.4 37.7-105 .8-3.6 1.7-7.4 1.9-8.5.8-3.3 1.3-5.5 3.3-16 1.9-9.6 2.5-13.1 3.8-21.3.3-2 .7-4.8 1-6.2.2-1.4.6-4.5.9-7 .3-2.5.7-6.1 1-8 3.3-27.2 4.5-45.8 5-80.5.3-14.9.7-28.1.9-29.5.3-1.4.8-5.2 1.1-8.5 1.3-14.7 8.6-36.7 14.5-44.3 5.1-6.5 13.1-8.7 22.4-6.1zM899.2 760.9c12.1 6.7 41.7 15.1 62.3 17.6 2.8.3 5.9.8 7 1 1.1.2 4.7.7 8 1 3.3.4 6.3 1 6.7 1.3.4.4 1.9 4.3 3.3 8.7 6.8 20.1 18.9 47.2 31.8 71 2.7 4.9 6.2 11.5 7.9 14.5 3.6 6.7 5.2 9.5 13.5 23.3l6.5 10.8-8.5 25.2c-4.7 13.9-13.7 40.5-20.1 59.2-6.3 18.7-15.2 44.7-19.6 57.8-7.4 22-10.2 33.2-9.4 38.2.1 1.1.5 4.2.9 6.9.3 2.8 3.1 11.3 6.1 19 3.1 7.8 5.7 14.5 5.8 15.1.2.5.7 1.9 1.1 3 .5 1.1 4.4 11.2 8.7 22.5 4.4 11.3 9 23.2 10.3 26.5 1.3 3.3 15 38.8 30.5 79 27.3 70.9 31.9 82.7 34.5 89 .7 1.6 3.8 9.7 6.9 18 3.2 8.2 6.2 15.9 6.7 17 .5 1.1 4.3 11 8.5 22 10.8 28.3 12.6 31.9 20.3 39.5 10.7 10.6 23 15.8 37.4 15.8 9 0 14.5-1.5 35.2-9.6 9.9-3.8 30.2-11.7 45-17.4 14.9-5.8 27.9-10.8 29-11.3 1.1-.4 2.5-.9 3-1.1 5-1.4 76.6-29.9 80.6-32 21.2-11.6 31.7-39.6 23.4-62.6-.9-2.3-1.8-5-2-5.8-.2-.8-11.8-31-25.8-67s-35.4-91.4-47.6-123c-12.2-31.6-22.9-58.9-23.7-60.7-.8-1.7-1.4-3.4-1.4-3.7 0-.3-2.4-6.7-5.4-14.3-3-7.6-8.9-22.8-13.1-33.8-4.2-11-8.8-22-10.2-24.5-3.7-6.2-12.7-15-19.3-18.7-3-1.7-22.8-12.6-44-24.3-45.1-24.9-45.5-25.1-50-27.7-1.9-1.1-8.7-4.8-15-8.3-10.7-5.9-38.3-21.1-38.7-21.4-.1-.1.2-2.1.7-4.6.9-4.8 1.6-10.3 2.5-18.5.3-2.8.8-6.6 1-8.5 1.9-15.3 2.6-56.3 1.2-72.8l-.7-9.2 3.7-.1c2.1 0 5.6-.2 7.8-.3 13.5-1 23.2-1.9 24.5-2.1.9-.2 4.7-.6 8.5-1 3.8-.3 7.2-.8 7.5-1 .3-.2 3.4-.6 6.9-1 3.4-.4 7-.8 7.9-1 .9-.1 3.6-.6 5.9-1l4.2-.7-1.5 5.4c-.9 2.9-3.6 10.7-6.1 17.3-2.4 6.6-4.6 12.4-4.7 13-.1.5-1 3.1-2 5.8-1.1 2.6-1.7 5-1.4 5.2.2.3 89.9.6 199.4.7l198.9.3 9.5 2.2c12.6 3 17.5 4.6 27.9 9 32.4 13.8 53.3 39.2 60.6 73.8 2 9 2.9 32.4 1.5 37.6-.5 1.9-1.1 5-1.4 7-1.1 7-5.9 20.5-10.4 29.3-7.5 14.3-17.9 23.4-31.7 27.7-3 1-17.2 1.3-56.7 1.3-29.1.1-52.8.2-52.8.3 0 .2 9.3 5.4 19.5 10.8 13.8 7.3 35.8 19.1 44 23.5 2.8 1.5 9.5 5.1 15 8 24.7 13.1 45.9 31.5 57.2 49.5 18 28.6 13.8 56.8-13.2 87.9-13.2 15.3-26 26.3-51.3 44.3-5.9 4.1-10.9 7.7-11.1 7.9-.2.1 2.9 5.5 6.9 11.8 13.1 21.1 18.4 35 24.5 64.1 1.1 5.2 1.4 29.8.4 35.5-.6 3-1.3 6.8-1.5 8.5-1.5 7.9-10 28.7-13.5 32.9-.5.6-2.4 3.3-4.1 6.1-1.8 2.7-8.2 10-14.3 16.1-11.5 11.6-22.9 20-42.9 31.9-10.1 6.1-11.3 7.1-10.6 8.9.4 1.2 2.9 6.6 5.5 12.1 5.4 11.4 9.6 24.4 11.8 36 1.5 8.1 1.6 31.2.2 38.5-7 36.8-34.4 64.3-82 82.3-11.9 4.5-28.9 9.5-39.5 11.6-9.4 1.9-10.3 2.1-17 3.2-10.8 1.7-11.3 1.7-17 2.4-3 .3-6.6.8-8 1-6 .9-21.8 2.1-40 3.1-24 1.3-90.7.7-112.5-1-2.7-.3-9.9-.7-16-1-6-.4-12.8-.9-15-1.1-2.2-.2-7.4-.7-11.5-1-9.8-.7-35.8-3.2-43-4-1.9-.3-5.7-.7-8.5-1-2.7-.3-6.6-.8-8.5-1-1.9-.3-6-.7-9-1-3-.3-6.2-.8-7-1-.8-.2-4.4-.7-8-1-3.6-.3-7.2-.8-8-1-.8-.2-4-.7-7-1-3-.3-6.2-.8-7-1-.8-.2-3.7-.7-6.5-1-2.7-.3-7.9-1-11.5-1.6-3.6-.6-7.4-1.2-8.5-1.4-8.3-1.1-14.1-2-28.5-4.5-9.1-1.6-18.1-3.2-20-3.5-1.9-.3-4.3-.8-5.2-1.1-.9-.3-3.2-.7-5-.9-1.8-.2-5.8-.9-8.8-1.5-3-.6-6.6-1.4-8-1.6-1.4-.3-5.6-1.1-9.5-1.9-3.8-.8-8.1-1.6-9.5-1.9-4.7-.8-13.5-2.7-19.5-4.1-3.3-.8-7.1-1.6-8.5-1.9-12.1-2.3-61.1-14.5-81-20.3-39-11.2-78-25.1-97-34.6-7.7-3.8-8.5-4.5-8.6-7.2-.1-1.7-.5-21.7-.8-44.5-.4-22.8-.9-51.2-1.1-63-.2-11.8-.6-36.8-1-55.5-.3-18.7-.8-44.8-1-58-.2-13.2-.7-38.6-1-56.5-.3-17.9-.7-43.8-1-57.5-.3-13.8-.7-38.5-1-55-.7-44.6-1.4-84.6-2-116-.9-47.1-1.6-87.8-2-113.6l-.4-24.7 7.7-2.6c4.2-1.5 8.6-3.1 9.7-3.6 7.2-3.2 11.5-5 12-5 1.6 0 31.8-15.6 41.1-21.2 13.1-7.9 30.5-20 44.6-31.3 20.8-16.5 56.1-53.8 68.8-72.8 1.4-2 2.8-3.7 3.2-3.7.4 0 2.2.8 4 1.9zm141.9 26.1c.4 1.4.7 3.8.7 5.5l.1 3-1.5-3.5c-3.4-7.7-3.5-8.1-1.6-7.8.9.2 2 1.4 2.3 2.8zM617 822.4c6 .7 14.8 3.8 19.8 7 11.9 7.5 19.2 21.7 20.6 40.2.5 6.5 1.4 44.4 2.1 90.9.2 11.5.6 36.7 1 56 .3 19.2.8 46.5 1 60.5.3 14 .7 39 1 55.5.3 16.5.8 42.6 1 58 1.1 63.3 1.5 89.3 2 113 .7 37.9 1.6 86.2 2 113.5.2 13.5.6 40.5 1 60 1.3 79.4 1.2 94.8-.9 103-5.7 22.7-18.9 37.8-39.3 44.8-12 4.2-20.3 4.9-53.3 4.6-38.2-.3-69.2-2.1-87-5-40-6.5-58.1-17.5-64.8-39.6-.4-1.3-.8-161.4-.9-355.8-.2-311.7-.1-354.3 1.2-360 4.6-19.6 14.6-33.8 28.9-40.9 12.1-5.9 13.6-6 84.5-6.1 35.5 0 64.6-.2 64.8-.4.4-.4 9.6 0 15.3.8zm478 135.9c5.2 3 13.6 7.5 18.5 10.2 5 2.6 9.5 5.1 10 5.5.6.4 3 1.9 5.5 3.3 2.5 1.3 7 3.8 10 5.4 3 1.7 10 5.5 15.5 8.6 5.5 3 15.6 8.6 22.5 12.4 6.9 3.8 15.7 8.7 19.5 10.7 14.4 7.9 13.8 7.1 19.3 21.6 1.1 3 3.6 9.5 5.6 14.5 1.9 4.9 5.4 14.2 7.9 20.5 2.5 6.3 21 54.2 41.1 106.5 20.2 52.2 37.1 95.9 37.6 97 .6 1.1 2.9 7.2 5.3 13.5s8.5 22.2 13.6 35.3c5 13.1 8.9 24.2 8.6 24.7-.8 1.3-4.3 2.8-24.5 10.5-9.6 3.6-18.4 7-19.5 7.5-1.1.5-11.9 4.7-24 9.4-29.3 11.2-77.6 29.8-90 34.7-5.4 2.2-10.8 3.9-11.8 3.7-1.4-.2-3.6-4.9-9.4-19.8-4.1-10.7-8.1-20.9-8.9-22.7-.8-1.7-1.4-3.6-1.4-4.2 0-.6-.4-1.9-1-2.9-1.3-2.5-3.2-7.2-8.3-20.7-2.5-6.6-8.3-21.5-12.8-33-4.5-11.6-9.2-23.9-10.5-27.5-1.4-3.6-3.1-7.9-3.9-9.7-.8-1.7-1.5-3.5-1.5-4.1 0-.5-1.3-4-2.9-7.8-1.6-3.8-5.9-14.6-9.5-23.9-3.6-9.4-15.8-41.1-27.2-70.5-25.3-65.5-24.1-62.4-26.4-68.7-1-2.8-2.3-6-2.9-7.2-.9-1.7-.6-3.8 2-10.8 1.7-4.9 3.2-9.3 3.3-9.8.2-.6.6-1.7.9-2.5.3-.8 2.2-6.5 4.2-12.5 2-6.1 10.2-30.1 18.2-53.5 7.9-23.4 14.9-44 15.4-45.8.6-1.7 1.3-3.2 1.7-3.2.4 0 5 2.4 10.2 5.3z"/><path d="M537.5 1433.7c-8.3 1.7-21.9 7.9-27.8 12.5-17.6 13.9-27.4 32.8-28.2 54.4-1.8 45.3 38.2 80.2 83.3 72.8 28.4-4.6 51.5-27.2 57.5-56.2 1.8-8.8 1.5-23.1-.8-31.7-6.5-24.7-26.2-44.6-50.5-51-8.7-2.3-24.6-2.7-33.5-.8zm25.5 50.8c14.9 7.8 14.3 30.3-1 38-14.1 7-30.6-3.2-30.9-19.3-.3-16 17.3-26.3 31.9-18.7zM1113.3 1024.5c-5.2 1.6-7.8 3.1-12.5 7.3-19.2 17.4-6.4 49.6 19.7 49.5 16.8-.1 28.7-12.1 28.7-28.9 0-7.7-2.5-14.2-7.6-19.6-7-7.4-19.3-10.9-28.3-8.3z"/></svg>